<?xml version="1.0" encoding="UTF-8"?>
<svg id="Layer_2" data-name="Layer 2" xmlns="http://www.w3.org/2000/svg" viewBox="0 0 482.49 486.65">
  <defs>
    <style>
      .cls-1 {
        fill: #faebd7;
      }

      .cls-2 {
        fill: #e2be91;
      }

      .cls-3 {
        fill: #050505;
        opacity: .5;
      }
    </style>
  </defs>
  <g id="Layer_3" data-name="Layer 3">
    <g>
      <path class="cls-2" d="M154.88,115.49H482.27c.07,1.35,.3,2.61,.19,3.84-2.82,31.6-5.68,63.19-8.51,94.78-2.46,27.46-4.88,54.92-7.33,82.38-2.88,32.26-5.81,64.51-8.68,96.76-1.52,17.04-3.11,34.08-4.34,51.14-.31,4.31-1.73,6.13-6.05,7.31-41.45,11.3-82.82,22.94-124.25,34.31-2.85,.78-6.29,.86-9.12,.09-41.76-11.44-83.46-23.11-125.2-34.61-3.39-.93-4.6-2.41-4.91-6.05-3.02-35.75-6.32-71.47-9.5-107.21-2.83-31.76-5.57-63.53-8.4-95.3-3.16-35.4-6.38-70.8-9.55-106.2-.62-6.92-1.13-13.85-1.73-21.25Zm162.81,257.32c-13.62-3.57-27.21-7.25-40.88-10.65-2.98-.74-3.88-2.05-4.09-5.02-.7-9.56-1.77-19.09-2.71-28.72h-40.91c0,2.06-.14,3.87,.02,5.65,1.52,17.02,3.54,34.02,4.41,51.08,.34,6.69,2.99,8.72,8.89,10.28,25.25,6.66,50.36,13.85,75.53,20.84,.33,.05,.65,.14,.95,.27v42.27c5.96-1.62,10.87-2.94,15.78-4.31,29.96-8.31,59.93-16.61,89.85-25.05,1.23-.35,2.89-1.94,3-3.09,1.2-12.32,2.12-24.67,3.15-37.01,.69-8.23,1.41-16.45,2.17-24.67,1.25-13.63,2.57-27.26,3.8-40.9,.77-8.55,1.38-17.12,2.14-25.67,1.25-13.97,2.61-27.92,3.84-41.89,.8-9.05,1.37-18.12,2.19-27.16,1.2-13.14,2.54-26.27,3.81-39.4,.95-9.85,1.94-19.7,2.8-29.56,.48-5.5,.74-11.02,1.1-16.57-1.38-.22-2.02-.4-2.66-.41-42.39-.02-84.78,0-127.17-.08-3.23,0-3.87,1.37-3.84,4.2,.09,12.13,.03,24.27,.02,36.41-.32,.15-.64,.3-.96,.45-.99-.08-1.98-.22-2.97-.22-31.76-.01-63.53-.01-95.29,0-1.11,0-2.23,.21-3.85,.38,3.69,41.34,7.36,82.4,11.03,123.43h91.09c.32,.15,.63,.3,.95,.45,0,19.86,.05,39.73-.02,59.59,0,1.69-.76,3.37-1.16,5.05Z"/>
      <path class="cls-1" d="M318.89,183.66c0-12.14,.07-24.27-.02-36.41-.02-2.83,.61-4.2,3.84-4.2,42.39,.09,84.78,.06,127.17,.08,.64,0,1.28,.19,2.66,.41-.36,5.55-.62,11.07-1.1,16.57-.86,9.86-1.85,19.71-2.8,29.56-1.27,13.13-2.61,26.26-3.81,39.4-.82,9.05-1.39,18.11-2.19,27.16-1.23,13.97-2.59,27.93-3.84,41.89-.77,8.55-1.37,17.12-2.14,25.67-1.23,13.64-2.55,27.26-3.8,40.9-.75,8.22-1.48,16.44-2.17,24.67-1.03,12.34-1.95,24.69-3.15,37.01-.11,1.15-1.77,2.74-3,3.09-29.93,8.44-59.89,16.73-89.85,25.05-4.9,1.36-9.82,2.68-15.78,4.31,0-14.56,0-28.41,0-42.27,.77-.3,1.51-.68,2.31-.9,25.09-6.98,50.12-14.15,75.31-20.72,5.2-1.36,7.18-3.68,7.07-8.6-.02-.83,.07-1.66,.14-2.49,2.51-28.11,5.04-56.22,7.54-84.33,.95-10.7,1.84-21.4,2.8-32.64-2.51,0-4.47,0-6.42,0-29.58-.05-59.17-.1-88.75-.16,0-13.87,0-27.74,0-41.6h98.92c1.26-13.96,2.46-27.37,3.71-41.23-5.74,0-10.86,.01-15.98,0-28.89-.07-57.77-.15-86.66-.22Z"/>
      <path class="cls-3" d="M317.93,307.71h-91.09c-3.67-41.03-7.33-82.09-11.03-123.43,1.62-.17,2.74-.38,3.85-.38,31.76-.02,63.53-.02,95.29,0,.99,0,1.98,.14,2.97,.22,0,13.55,0,27.11,.01,40.66h-57.07c1.3,14.47,2.53,28.14,3.8,42.28h53.27c0,13.55,0,27.11-.01,40.66Z"/>
      <path class="cls-3" d="M317.94,373.61c0,14.22,0,28.45,.01,42.67-25.16-7-50.27-14.18-75.53-20.84-5.9-1.56-8.55-3.59-8.89-10.28-.87-17.06-2.89-34.05-4.41-51.08-.16-1.78-.02-3.59-.02-5.65h40.91c.94,9.63,2.01,19.16,2.71,28.72,.22,2.97,1.11,4.28,4.09,5.02,13.66,3.4,27.26,7.07,40.88,10.64,.1,.26,.18,.53,.25,.8Z"/>
      <path class="cls-1" d="M317.94,373.61c-.07-.27-.16-.54-.25-.8,.41-1.68,1.16-3.37,1.16-5.05,.07-19.86,.03-39.73,.02-59.59,16.41,0,32.82,0,49.6,0,.11,.96,.37,1.9,.29,2.8-1.35,15.7-2.65,31.4-4.29,47.07-.15,1.45-2.33,3.42-3.94,3.88-14.15,4.06-28.39,7.84-42.6,11.69Z"/>
      <path class="cls-2" d="M317.94,224.77c.32,.11,.64,.23,.96,.34,0,13.87,0,27.74,0,41.6-.32,.11-.64,.23-.96,.34h-53.27c-1.27-14.14-2.5-27.81-3.8-42.28h57.07Z"/>
    </g>
    <g>
      <path class="cls-2" d="M.25,0H327.8c-.79,9.26-1.53,18.32-2.34,27.36-3.21,36.08-6.43,72.16-9.67,108.24-3.18,35.42-6.41,70.83-9.58,106.24-2.52,28.13-5.01,56.27-7.43,84.41-.71,8.21-.57,8.23-8.48,10.43-40.78,11.31-81.54,22.67-122.36,33.82-2.83,.77-6.26,.63-9.12-.15-41.61-11.4-83.16-23-124.75-34.48-2.99-.83-4.53-1.85-4.85-5.5-5.04-57.93-10.35-115.84-15.52-173.77C9.09,104.98,4.56,53.33,0,1.69c-.04-.47,.13-.95,.24-1.69ZM163.12,192.52c.01,21.4,.03,42.8,.04,64.2-13.79-3.63-27.54-7.42-41.38-10.81-3.94-.97-5.2-2.93-5.44-6.74-.58-9.23-1.54-18.43-2.36-27.75h-42.41c1.88,20.59,3.85,40.88,5.49,61.19,.28,3.44,1.41,4.71,4.64,5.59,27.51,7.51,54.96,15.22,82.43,22.88v42.12c13.36-3.68,25.63-7.03,37.9-10.43,22.5-6.24,45.01-12.47,67.46-18.87,1.34-.38,3.14-2.11,3.27-3.37,.95-9.22,1.47-18.47,2.23-27.71,1-12.2,2.05-24.4,3.16-36.59,1.21-13.34,2.58-26.66,3.76-40,1.14-12.86,2.03-25.73,3.2-38.58,1.15-12.68,2.63-25.32,3.76-38,1.18-13.18,2-26.4,3.19-39.58,1.5-16.63,3.23-33.24,4.8-49.86,.38-4.04,.53-8.11,.8-12.4-1.2-.15-2-.34-2.8-.34-42.24-.02-84.49,.02-126.73-.08-3.49,0-4.12,1.44-4.09,4.48,.14,12.14,.08,24.28,.1,36.42-1.98,.1-3.97,.29-5.95,.3-30.41,.02-60.82,.01-91.24,.01-1.77,0-3.54,0-5.74,0,1.26,13.98,2.45,27.27,3.68,40.89,33.16,0,65.72,0,98.28,0-.02,13.82-.03,27.64-.05,41.45H68.07c1.24,14.2,2.41,27.53,3.63,41.41,2.24,0,4.18,0,6.13,0,28.43,.06,56.86,.12,85.29,.17Z"/>
      <path class="cls-1" d="M164.14,68.28c-.02-12.14,.04-24.28-.1-36.42-.03-3.04,.6-4.49,4.09-4.48,42.24,.1,84.49,.07,126.73,.08,.8,0,1.59,.19,2.8,.34-.27,4.29-.41,8.35-.8,12.4-1.57,16.62-3.3,33.23-4.8,49.86-1.19,13.18-2.01,26.4-3.19,39.58-1.13,12.68-2.61,25.32-3.76,38-1.17,12.85-2.06,25.73-3.2,38.58-1.18,13.34-2.55,26.66-3.76,40-1.11,12.19-2.16,24.39-3.16,36.59-.76,9.24-1.28,18.49-2.23,27.71-.13,1.25-1.92,2.98-3.27,3.37-22.46,6.4-44.96,12.63-67.46,18.87-12.26,3.4-24.53,6.75-37.9,10.43,0-14.44,0-28.28,0-42.12,.04-.23,.09-.47,.13-.7,27.02-7.42,54.04-14.8,81.02-22.38,1.2-.34,2.6-2.32,2.76-3.67,.94-7.91,1.54-15.85,2.26-23.79,2.56-28.26,5.16-56.51,7.65-84.78,1.98-22.47,3.83-44.96,5.73-67.44,.82-9.71,1.64-19.42,2.52-29.74h-5.92c-18.44,0-36.88-.03-55.32,.01-13.62,.03-27.23,.16-40.85,.25-.01-.19,0-.38,.04-.56Z"/>
      <path class="cls-3" d="M164.26,300.37c-.04,.23-.09,.47-.13,.7-27.47-7.65-54.92-15.37-82.43-22.88-3.23-.88-4.36-2.15-4.64-5.59-1.64-20.31-3.6-40.6-5.49-61.19h42.41c.82,9.32,1.77,18.52,2.36,27.75,.24,3.81,1.5,5.77,5.44,6.74,13.84,3.4,27.59,7.18,41.38,10.81,.34,.12,.68,.25,1.02,.37,.03,14.43,.05,28.86,.08,43.29Z"/>
      <path class="cls-3" d="M163.17,109.48H64.89c-1.23-13.62-2.42-26.91-3.68-40.89,2.21,0,3.97,0,5.74,0,30.41,0,60.82,0,91.24-.01,1.98,0,3.97-.19,5.95-.3-.04,.19-.05,.37-.04,.56,.03,13.45,.06,26.89,.09,40.34-.34,.1-.68,.2-1.03,.3Z"/>
      <path class="cls-3" d="M163.12,192.52c-28.43-.06-56.86-.12-85.29-.17-1.94,0-3.89,0-6.13,0-1.22-13.88-2.39-27.21-3.63-41.41,32,0,63.52,0,95.05,0,.35,.13,.71,.27,1.06,.4,0,13.59,0,27.19,0,40.78-.35,.13-.71,.27-1.06,.4Z"/>
      <path class="cls-1" d="M163.12,192.52c.35-.13,.71-.27,1.06-.4h49.91c-1.62,16.69-3.29,32.35-4.57,48.05-.3,3.69-1.83,4.98-5.11,5.85-13.45,3.56-26.83,7.36-40.23,11.07-.34-.12-.68-.25-1.02-.37-.01-21.4-.03-42.8-.04-64.2Z"/>
      <path class="cls-1" d="M164.18,151.33c-.36-.13-.71-.27-1.06-.4,.02-13.82,.03-27.64,.05-41.45,.34-.1,.69-.2,1.03-.3,19.19,0,38.37,0,57.84,0-1.54,14.55-2.98,28.16-4.46,42.16h-53.39Z"/>
    </g>
  </g>
</svg>