<?xml version="1.0" encoding="UTF-8"?>
<svg id="Layer_2" data-name="Layer 2" xmlns="http://www.w3.org/2000/svg" viewBox="0 0 327.71 371.29">
  <defs>
    <style>
      .cls-1 {
        fill: #faebd7;
      }

      .cls-2 {
        fill: #e2be91;
      }

      .cls-3 {
        fill: #050505;
        opacity: .5;
      }
    </style>
  </defs>
  <g id="Layer_2-2" data-name="Layer 2">
    <g>
      <path class="cls-2" d="M.2,0H327.71c-.36,4.94-.65,9.82-1.08,14.68-3.96,44.52-7.92,89.04-11.92,133.56-4.85,53.94-9.75,107.88-14.62,161.83-.63,6.95-1.33,13.9-1.75,20.86-.17,2.73-1.15,3.96-3.85,4.71-42.73,11.73-85.42,23.59-128.14,35.32-1.78,.49-3.94,.42-5.73-.08-42.4-11.66-84.77-23.43-127.17-35.12-2.74-.75-3.9-1.9-4.17-5-5.56-63.89-11.27-127.78-16.97-191.66C8.21,93.26,4.1,47.42,0,1.59c-.03-.32,.08-.66,.19-1.59ZM163.18,108.37l-.07,.36c.03,2.32,.1,4.65,.1,6.97,.03,47.16,.05,94.33,.07,141.49l.05,.48c-10.73-2.88-21.45-5.78-32.19-8.63-14.06-3.74-14.01-3.73-15.02-18.11-.42-6.05-1.16-12.08-1.76-18.09h-40.67c0,1.53-.09,2.83,.01,4.11,1.51,18.87,3.16,37.73,4.45,56.61,.23,3.32,1.47,4.53,4.38,5.31,26.91,7.24,53.79,14.56,80.67,21.86,.31,.12,.62,.24,.93,.37v41.64c2.4-.51,4.17-.8,5.9-1.27,10.21-2.8,20.41-5.65,30.61-8.46,22.96-6.33,45.94-12.61,68.86-19.07,1.34-.38,3.14-2.1,3.27-3.35,1.23-11.82,2.16-23.68,3.15-35.53,.74-8.89,1.37-17.79,2.17-26.68,1.23-13.81,2.61-27.61,3.81-41.42,.82-9.38,1.33-18.8,2.16-28.18,1.54-17.26,3.27-34.51,4.83-51.77,.83-9.22,1.4-18.46,2.24-27.67,1.17-12.82,2.55-25.62,3.74-38.43,.81-8.72,1.43-17.46,2.18-26.18,.22-2.53,.58-5.04,.91-7.77-1.61-.2-2.41-.38-3.21-.38-42.21-.02-84.43,.02-126.64-.08-3.55,0-4.06,1.55-4.03,4.52,.1,12.13,.03,24.26,.02,36.4-.31,.13-.61,.28-.9,.43-33.76-.05-67.52-.1-101.28-.12-.44,0-.88,.35-1.63,.66,.98,13.31,1.96,26.62,2.94,40h99.93Z"/>
      <path class="cls-1" d="M164.11,67.4c0-12.13,.08-24.27-.02-36.4-.02-2.97,.48-4.53,4.03-4.52,42.21,.1,84.43,.07,126.64,.08,.8,0,1.6,.18,3.21,.38-.32,2.72-.69,5.24-.91,7.77-.75,8.72-1.37,17.46-2.18,26.18-1.19,12.82-2.56,25.62-3.74,38.43-.84,9.22-1.41,18.46-2.24,27.67-1.56,17.26-3.29,34.51-4.83,51.77-.84,9.38-1.35,18.79-2.16,28.18-1.2,13.81-2.58,27.61-3.81,41.42-.79,8.89-1.42,17.79-2.17,26.68-.99,11.85-1.92,23.71-3.15,35.53-.13,1.25-1.93,2.98-3.27,3.35-22.93,6.46-45.9,12.74-68.86,19.07-10.21,2.81-20.4,5.67-30.61,8.46-1.73,.47-3.51,.76-5.9,1.27,0-14.15,0-27.89,0-41.64,1.07-.41,2.1-.93,3.2-1.23,25.25-6.98,50.51-13.92,75.74-20.94,2.19-.61,4.69-.54,5.01-4.25,2.44-28.94,5.15-57.86,7.77-86.79,3.28-36.2,6.57-72.4,9.83-108.6,.34-3.72,.48-7.46,.74-11.65-9.18,0-17.63,.02-26.07,0-25.42-.07-50.83-.15-76.25-.23Z"/>
      <path class="cls-1" d="M163.11,108.73h58.72c-.7,7.91-1.33,15.6-2.06,23.28-2.55,26.75-5.13,53.49-7.71,80.23-.97,10.07-1.92,20.14-3.04,30.2-.14,1.21-1.11,3.09-2.05,3.34-14.53,3.93-29.12,7.65-43.7,11.42-.02-47.16-.04-94.33-.07-141.49,0-2.32-.06-4.65-.1-6.97Z"/>
      <path class="cls-3" d="M163.32,257.68c-.04,14.35-.08,28.7-.12,43.05-26.89-7.3-53.77-14.63-80.67-21.86-2.91-.78-4.15-1.99-4.38-5.31-1.29-18.88-2.95-37.74-4.45-56.61-.1-1.28-.01-2.58-.01-4.11h40.67c.59,6.01,1.33,12.04,1.76,18.09,1.01,14.39,.95,14.37,15.02,18.11,10.74,2.85,21.46,5.75,32.19,8.63Z"/>
      <path class="cls-3" d="M163.21,67.84c0,13.51-.02,27.02-.03,40.53H63.24c-.98-13.37-1.97-26.69-2.94-40,.75-.31,1.19-.66,1.63-.66,33.76,.02,67.52,.07,101.28,.12Z"/>
    </g>
  </g>
</svg>