<?xml version="1.0" encoding="UTF-8"?>
<svg id="Layer_2" data-name="Layer 2" xmlns="http://www.w3.org/2000/svg" viewBox="0 0 483.92 499.19">
  <defs>
    <style>
      .cls-1 {
        fill: #e2be91;
      }

      .cls-2 {
        fill: #050505;
        opacity: .5;
      }
    </style>
  </defs>
  <g id="Layer_4" data-name="Layer 4">
    <g>
      <path class="cls-2" d="M277.89,499.19c-1.09-.55-2.13-1.34-3.29-1.6-17.53-3.96-29.4-14.66-36.78-30.72-7.94-17.28-11.73-35.56-12.75-54.46-.72-13.26-1.28-26.53-1.91-39.92-30.02,9.46-58.53,9.26-85-11.42-.28,.2-1.16,.83-2.04,1.46-17.17,12.42-36.61,12.35-53.62-.34-11.98-8.94-20.22-20.99-27.32-33.87-15.88-28.81-26.43-59.76-34.42-91.44-7.34-29.1-13.61-58.55-18.66-88.13C-2.03,124.59-.02,100.19,7.62,76.76,21.01,35.64,50.41,13.62,92.64,8.14c32.49-4.21,63.88,1.84,94.82,11.33,1.96,.6,4.69,.76,6.38-.15,19.23-10.42,39.89-14.49,61.52-13.83,9.79,.3,19.53,1.71,29.31,2.35,3.38,.22,6.94,.17,10.2-.64,41.41-10.25,82.27-10.85,122.09,6.76,21.25,9.4,38.78,23.66,53,41.98,7.95,10.24,10.71,22.35,11.56,34.94,1.82,27.07-3.22,53.32-10.3,79.22-10.89,39.86-27.11,77.52-47.81,113.26-.49,.85-.99,1.69-2.3,3.91,9.62-1.48,18.12-2.95,26.67-4.03,4.75-.6,9.68-1.28,14.36-.64,18.54,2.52,25.97,17.91,19.46,34.57-2.19,5.59-6.79,10.69-11.35,14.83-19.15,17.41-42.42,24.85-67.83,26.36-6.1,.36-12.25,.05-18.91,.05-.58,9.83-.57,19.48-1.84,28.96-2.14,15.94-4.05,32.02-7.92,47.58-8.47,34.06-30.43,54.67-65.15,61.32-4.28,.82-8.49,1.95-12.74,2.94h-17.97Zm120.26-202.77c1.03-1.71,1.43-2.4,1.86-3.07,24.14-37.44,42.61-77.51,55.21-120.22,7.54-25.58,13.2-51.55,12.2-78.46-.43-11.38-2.18-22.52-9.63-31.86-13.97-17.51-31.15-30.81-52.07-38.97-37.55-14.65-75.45-12.95-113.5-2-1.99,.57-4.21,.94-6.22,.68-6.25-.82-12.43-2.35-18.69-2.96-24.67-2.39-48.53-.08-70.18,13.37-2.78,1.73-5.05,1.97-8.21,.9-30.98-10.56-62.58-16.64-95.53-12.77C55.91,25.45,29.12,48.22,19.27,84.53c-5.88,21.66-6.63,43.68-3.38,65.78,5.25,35.72,13.8,70.7,24.54,105.15,7.46,23.92,15.64,47.66,28.92,69.06,5.61,9.04,12.5,17.73,20.4,24.83,12.4,11.14,27.01,10.35,39.77-.46,3.15-2.67,5.91-5.83,8.67-8.93,11.6-13.05,23.1-26.19,34.73-39.21,.94-1.05,2.85-2.31,3.89-2.01,8.63,2.48,17.17,5.29,25.46,7.92-5.6,10.65-15.08,17.06-27.77,18.89-3.12,.45-6.23,1.13-9.23,2.07-3.95,1.23-8.02,2.38-11.61,4.36-9.21,5.07-10.12,14.52-2,21.13,3.16,2.57,6.9,4.87,10.76,6.08,25.2,7.86,49.19,6.81,70.6-10.72,.18-.15,.58-.02,1.26-.02,0,1.59-.05,3.2,0,4.8,.91,24.42,1.67,48.85,2.8,73.27,.62,13.48,4.33,26.12,11.86,37.52,7.53,11.4,17.73,19.14,31.32,20.97,21.47,2.89,41.37-2.36,59.09-14.58,14.07-9.7,19.92-24.69,22.33-40.82,4.11-27.44,7.46-55,11.13-82.51,.23-1.73,.5-3.45,.57-3.92,10.85,.11,20.96,.82,30.98,.19,20.58-1.28,39.37-7.81,55.18-21.49,3.22-2.79,6.29-6.06,8.47-9.69,4.82-8.01,.3-16.1-9.03-16.61-2.95-.16-5.95,.37-8.92,.64-12.71,1.14-25.4,2.64-38.13,3.24-4.36,.2-8.82-1.86-13.76-3Z"/>
      <path class="cls-1" d="M217.79,294.19c3.34-8.9,5.77-17.98,9.98-26.13,17.9-34.69,17.36-70.73,8.75-107.42-4.37-18.62-17.54-28.7-36.75-28.78-13.43-.05-25.83,4.06-37.91,9.5-1.53,.69-3.37,.71-5.06,1.05-.23-1.71-.96-3.53-.61-5.12,2.88-12.99,5.05-26.25,9.26-38.81,3.52-10.53,8.32-21.04,14.6-30.14,14.58-21.13,34.99-33.66,61.07-35.2,51.95-3.07,93.01,17.18,123.03,59.34,7.07,9.93,12.1,21.31,18,32.07,.84,1.54,1.27,3.31,1.77,4.67-9.32,.54-18.27,.78-27.16,1.65-8.33,.82-15.97,4.54-21.78,10.12-5.78,5.54-9.26,13.26-9.93,21.48-1.25,15.36,2.82,29.89,8.64,43.84,4.89,11.72,9.98,23.45,16.2,34.49,9.99,17.73,16.94,37.28,31.74,52.74-1.91,.84-3.18,1.43-4.49,1.96-7.41,2.99-12.61,8.23-14.56,15.96-1.44,5.7-2.04,11.64-2.77,17.5-1.09,8.83-2.03,17.69-2.92,26.54-.7,6.93-1,13.9-1.88,20.8-1.15,8.95-2.75,17.85-4.06,26.78-1.32,9.06-2.39,18.15-3.81,27.2-2.55,16.21-11.14,28.12-26.24,34.76-11.53,5.07-23.73,7.47-36.38,6.46-9.73-.78-17.17-5.68-22.84-13.5-7.5-10.35-10.24-22.19-10.95-34.67-.75-13.19-1.86-26.37-2.1-39.57-.34-18.95-.39-37.92,.1-56.86,.52-20-10.45-32.32-30.95-32.7Z"/>
      <path class="cls-1" d="M163.4,290.17c-7.66,8.25-15.5,16.46-23.04,24.93-4.41,4.95-8.26,10.39-12.51,15.49-2.23,2.67-4.66,5.2-7.19,7.6-6.51,6.18-16.03,6.47-22.43,.41-4.67-4.42-9.2-9.21-12.8-14.51-12.74-18.71-20.67-39.73-27.85-61.01-11.44-33.91-19.67-68.63-26.36-103.78-2.97-15.62-3.7-31.29-2.84-46.99,.75-13.74,3.92-27.14,10.12-39.6,8.44-16.97,21.74-28.49,39.85-33.86,7.28-2.16,15.06-2.72,22.63-3.84,4.05-.6,8.19-1.33,12.24-1.13,22.67,1.1,45.08,3.88,67.03,11.76-.92,1.09-1.69,2.08-2.54,3-10.43,11.23-18.06,24.21-23.62,38.42-10.78,27.54-14.2,56.14-12.86,85.58,.64,13.92,.05,27.91-.48,41.85-.23,6.11-2.58,12.2-2.46,18.27,.4,20.88,7.23,39.36,22.39,54.28,.83,.81,1.63,1.65,2.43,2.48,.11,.11,.13,.3,.26,.65Z"/>
      <path class="cls-1" d="M389.43,279.29c.36-1.37,.46-2.87,1.1-4.1,8.63-16.44,10.13-34.15,7.66-51.98-3.28-23.63-2.92-46.86,1.31-70.38,2.02-11.23,.49-22.83-4.4-33.92-14.9-33.82-36.9-61.33-68.89-80.38-4.23-2.52-8.68-4.66-13.94-7.45,4.95-.81,8.91-1.58,12.9-2.1,28.15-3.65,55.7-1.91,81.67,10.61,7.57,3.65,14.83,8.29,21.45,13.47,6.31,4.94,11.64,11.14,17.31,16.87,6.4,6.48,7.18,15.15,7.62,23.37,.45,8.31-1.09,16.72-1.52,25.1-1.09,21.04-6.67,41.13-13.04,61.02-10.89,34-25.8,66.18-44.29,96.71-.93,1.53-2.33,2.77-3.51,4.14-.48-.33-.95-.65-1.43-.98Z"/>
      <path class="cls-1" d="M203.95,291.05c-20.13-.26-34.13-10.65-43.83-27.62-6.99-12.23-7.79-25.42-6.55-39.36,1.44-16.09,1.09-32.34,1.45-48.52,.09-4.15-.2-8.32-.02-12.46,.04-1,1.06-2.27,1.98-2.88,11.21-7.52,23.52-12.23,36.9-14.15,6.52-.94,12.77,.12,18.69,2.79,5.78,2.61,8.61,7.88,9.95,13.57,7.79,33.03,9.67,65.63-6.33,97.29-4.91,9.72-8.01,20.35-12.25,31.35Zm12.87-130.12c-.34-.6-.76-1.7-1.49-2.55-3.86-4.52-16.98-6.36-21.96-3.13-2.74,1.78-2.94,4.07-1.57,6.88,2.66,5.45,7.87,7.44,12.97,9.14,3.7,1.24,12.2-6.15,12.04-10.34Z"/>
      <path class="cls-1" d="M378.2,264.12c-.5-.87-1.03-1.73-1.48-2.62-12.74-25.05-28.48-48.77-35.18-76.52-1.76-7.28-1.97-15.1-1.71-22.64,.24-7.13,4.47-12.82,11.26-15.13,5.12-1.74,10.8-2.07,16.27-2.52,4.47-.36,9,.17,13.5,.07,3.06-.07,4.22,1.15,3.92,4.16-.77,7.9-1.08,15.87-2.22,23.71-2.46,16.86,.15,33.46,1.49,50.19,.79,9.86,.14,19.88-.49,29.79-.24,3.72-2.26,7.32-3.47,10.98-.63,.17-1.26,.35-1.89,.52Zm-18.07-96.75c4.52-3.84,8.5-6.61,11.68-10.1,2.48-2.72,1.05-5.38-2.36-6.38-6.21-1.82-12.22-.85-17.58,2.62-1.23,.8-2.44,4.15-1.91,4.73,2.82,3.09,6.19,5.67,10.17,9.12Z"/>
      <path class="cls-1" d="M164.36,342.74c6.43-1.72,12.83-3.58,19.3-5.14,10.39-2.51,18.97-7.59,25.28-16.43,2.59-3.63,5.68-6.92,8.63-10.29,2.87-3.28,6.25-3.28,9.87-1.28,7.16,3.95,9.28,13.58,4.25,20-15.17,19.34-35.35,23.13-58.12,18.36-3.26-.68-6.34-2.24-9.5-3.39,.1-.61,.2-1.22,.3-1.82Z"/>
      <path class="cls-1" d="M446.57,313.54c-1.15,1.09-2.16,2.38-3.47,3.23-19.08,12.32-40.19,14.66-62.16,12.27-2.16-.23-5.96-2.14-5.91-3.13,.2-4.47,1.16-9,2.58-13.26,.57-1.72,2.85-3.19,4.69-4.1,3.56-1.76,6.82-2.23,11.1-.13,5.66,2.77,12.23,4.66,18.49,4.95,9.55,.44,19.17-.83,28.77-1.33,1.86-.1,3.74-.01,5.61-.01,.1,.5,.2,1.01,.3,1.51Z"/>
    </g>
  </g>
</svg>