<?xml version="1.0" encoding="UTF-8"?>
<svg id="Layer_2" data-name="Layer 2" xmlns="http://www.w3.org/2000/svg" viewBox="0 0 439.76 445.04">
  <defs>
    <style>
      .cls-1 {
        fill: #faebd7;
      }

      .cls-2 {
        fill: #e2be91;
      }
    </style>
  </defs>
  <g id="Layer_5" data-name="Layer 5">
    <g>
      <path class="cls-1" d="M126.46,414.13c-8.13-7.48-12.56-17.01-12.67-27.77-.35-36.25-.49-72.52,.07-108.77,.4-25.74,24.68-49.15,50.36-49.33,34.43-.24,68.86-.13,103.29-.1,30.67,.02,53.02-13.7,65.67-41.5,3.79-8.34,5.13-18.2,5.7-27.49,.91-14.9,.24-29.89,.24-45.4,1.9-.1,3.49-.25,5.09-.25,11.31-.02,22.62,.16,33.93-.04,21.98-.39,36.19,10.93,45.31,29.86,6.73,13.96,9.97,28.98,12.71,44.11,.17,.93-.2,1.96-.31,2.94-1.81,.7-3.84,1.07-5.39,2.15-8.01,5.57-15.88,11.36-23.84,17.01-26.46,18.77-52.98,37.46-79.39,56.3-26.68,19.02-53.29,38.15-79.85,57.34-1.75,1.26-2.81,3.47-4.19,5.25h-23.15v13.23c1.01,.36,2.22,.79,3.43,1.23-.88,1.32-1.48,3.02-2.69,3.89-18.27,13.08-36.63,26.01-54.93,39.05-13.17,9.38-26.27,18.87-39.4,28.31Z"/>
      <path class="cls-2" d="M289.36,9.5c18.59,7.83,36.14,23.86,36.47,49.46,.45,34.07,.43,68.16,.04,102.23-.35,30.28-24.09,53.2-54.41,53.26-34.24,.07-68.49,.16-102.73-.07-19.56-.13-36.27,6.97-49.76,20.44-12.36,12.35-18.61,28-18.66,45.75-.04,14.3,0,28.59,0,42.89,0,1.63,0,3.26,0,5.54-3.65,0-6.91,.06-10.17-.01-12.09-.27-24.24,.03-36.26-1.06-9.18-.83-17.39-5.07-24.12-11.68,2.46-3.99,4.5-8.33,7.47-11.9,8.77-10.55,17.98-20.74,26.9-31.18,10.85-12.69,21.55-25.5,32.37-38.21,8.57-10.07,17.26-20.05,25.83-30.12,8.57-10.07,17.06-20.2,25.59-30.3,8.64-10.23,17.24-20.48,25.94-30.66,6.98-8.17,13.97-16.35,21.18-24.32,2.1-2.32,4.95-3.97,7.45-5.92h16.97c0-3.57-.22-6.68,.06-9.75,.29-3.22-.88-4.61-4.07-4.34,2.79-3.96,5.32-8.14,8.42-11.84,8.6-10.27,17.47-20.32,26.17-30.51,10.85-12.7,21.68-25.41,32.41-38.21,2.51-2.99,4.61-6.32,6.89-9.5Z"/>
      <path class="cls-1" d="M202.5,113.64c-2.5,1.96-5.35,3.6-7.45,5.92-7.2,7.98-14.19,16.15-21.18,24.32-8.69,10.18-17.3,20.43-25.94,30.66-8.53,10.1-17.02,20.23-25.59,30.3-8.57,10.07-17.26,20.05-25.83,30.12-10.82,12.71-21.52,25.52-32.37,38.21-8.92,10.43-18.12,20.62-26.9,31.18-2.97,3.57-5.01,7.91-7.47,11.9-10.86-8.88-16.56-21.02-20.45-33.96-12.12-40.3-12.65-80.81-.18-121.1,7.47-24.15,23.63-39.96,48.5-46.03,4.79-1.17,9.86-1.57,14.81-1.59,42.53-.14,85.05-.11,127.58-.13,.83,0,1.65,.13,2.48,.19Z"/>
      <path class="cls-2" d="M126.46,414.13c13.13-9.44,26.23-18.93,39.4-28.31,18.3-13.04,36.66-25.97,54.93-39.05,1.21-.86,1.81-2.57,2.69-3.89,34.03,0,68.06,0,101.54,0,0,16.84,1.44,33.41-.41,49.61-1.79,15.6-12.68,26.59-26.4,33.64-37.2,19.1-76.43,23.37-117.16,14.44-16.77-3.68-33.04-8.71-46.92-19.38-2.74-2.11-5.12-4.69-7.67-7.06Zm132.98-23.76c-.24,10.96,10.57,19.76,20.23,19.5,10.87-.29,19.81-9.75,19.55-20.91-.24-10.55-9.44-19.65-19.87-19.67-11.13-.03-20.08,9.45-19.91,21.08Z"/>
      <path class="cls-2" d="M243.2,328.43c1.38-1.77,2.44-3.98,4.19-5.25,26.56-19.19,53.16-38.32,79.85-57.34,26.42-18.83,52.94-37.52,79.39-56.3,7.96-5.65,15.82-11.44,23.84-17.01,1.55-1.08,3.58-1.45,5.39-2.15,.55,1.36,1.44,2.69,1.6,4.1,1.9,16.89,3.53,33.59,1.02,50.8-2.49,17.09-7.14,33.27-13.78,48.97-5.15,12.19-11.52,23.96-24.38,29.64-6.08,2.69-12.98,4.83-19.54,4.9-43.54,.41-87.09,.2-130.63,.15-2.32,0-4.63-.33-6.95-.51Z"/>
      <path class="cls-1" d="M289.36,9.5c-2.29,3.17-4.38,6.51-6.89,9.5-10.74,12.79-21.57,25.51-32.41,38.21-8.7,10.19-17.57,20.24-26.17,30.51-3.1,3.7-5.63,7.88-8.42,11.84-21.44,.07-42.87,.16-64.31,.21-12.28,.03-24.56,0-36.6,0-.44-.61-.79-.88-.79-1.14,.25-18.1-.21-36.24,1.02-54.28,1.24-18.22,12.97-28.75,29.53-34.42C164.81,2.92,186.12,.54,207.57,.05c13.02-.3,26.11,.73,39.13,1.76,11.04,.87,22.03,2.39,32.99,4.05,3.33,.5,6.46,2.39,9.67,3.64Zm-129.69,63.09c10.11,1.46,20.37-9.02,20.3-19.89-.07-11.06-9.21-20.32-20.18-20.28-10.35,.04-19.92,9.29-20.01,19.34-.11,11.77,8.52,20.81,19.89,20.83Z"/>
    </g>
  </g>
</svg>